<mxfile host="app.diagrams.net" agent="Mozilla/5.0 (Windows NT 10.0; Win64; x64) AppleWebKit/537.36 (KHTML, like Gecko) Chrome/135.0.0.0 Safari/537.36" version="26.2.14">
  <diagram id="C5RBs43oDa-KdzZeNtuy" name="Page-1">
    <mxGraphModel dx="2600" dy="597" grid="1" gridSize="10" guides="1" tooltips="1" connect="1" arrows="1" fold="1" page="1" pageScale="1" pageWidth="827" pageHeight="1169" math="0" shadow="0">
      <root>
        <mxCell id="WIyWlLk6GJQsqaUBKTNV-0" />
        <mxCell id="WIyWlLk6GJQsqaUBKTNV-1" parent="WIyWlLk6GJQsqaUBKTNV-0" />
        <mxCell id="6uOjEQnala9XNtxMy3LC-0" value="&lt;font style=&quot;vertical-align: inherit;&quot;&gt;&lt;font style=&quot;vertical-align: inherit;&quot;&gt;&lt;font style=&quot;vertical-align: inherit;&quot;&gt;&lt;font style=&quot;vertical-align: inherit;&quot;&gt;utilizador&lt;/font&gt;&lt;/font&gt;&lt;/font&gt;&lt;/font&gt;" style="rounded=1;whiteSpace=wrap;html=1;" parent="WIyWlLk6GJQsqaUBKTNV-1" vertex="1">
          <mxGeometry x="-300" y="1100" width="120" height="60" as="geometry" />
        </mxCell>
        <mxCell id="6uOjEQnala9XNtxMy3LC-1" value="&lt;font style=&quot;vertical-align: inherit;&quot;&gt;&lt;font style=&quot;vertical-align: inherit;&quot;&gt;nome&lt;/font&gt;&lt;/font&gt;" style="ellipse;whiteSpace=wrap;html=1;" parent="WIyWlLk6GJQsqaUBKTNV-1" vertex="1">
          <mxGeometry x="-170" y="1160" width="70" height="50" as="geometry" />
        </mxCell>
        <mxCell id="6uOjEQnala9XNtxMy3LC-2" value="&lt;font style=&quot;vertical-align: inherit;&quot;&gt;&lt;font style=&quot;vertical-align: inherit;&quot;&gt;id&lt;/font&gt;&lt;/font&gt;" style="ellipse;whiteSpace=wrap;html=1;" parent="WIyWlLk6GJQsqaUBKTNV-1" vertex="1">
          <mxGeometry x="-150" y="1100" width="70" height="50" as="geometry" />
        </mxCell>
        <mxCell id="6uOjEQnala9XNtxMy3LC-3" value="&lt;font style=&quot;vertical-align: inherit;&quot;&gt;&lt;font style=&quot;vertical-align: inherit;&quot;&gt;telemovel&lt;/font&gt;&lt;/font&gt;" style="ellipse;whiteSpace=wrap;html=1;" parent="WIyWlLk6GJQsqaUBKTNV-1" vertex="1">
          <mxGeometry x="-345" y="949" width="65" height="50" as="geometry" />
        </mxCell>
        <mxCell id="6uOjEQnala9XNtxMy3LC-4" value="&lt;font style=&quot;vertical-align: inherit;&quot;&gt;&lt;font style=&quot;vertical-align: inherit;&quot;&gt;email&lt;/font&gt;&lt;/font&gt;" style="ellipse;whiteSpace=wrap;html=1;" parent="WIyWlLk6GJQsqaUBKTNV-1" vertex="1">
          <mxGeometry x="-170" y="1015" width="75" height="60" as="geometry" />
        </mxCell>
        <mxCell id="6uOjEQnala9XNtxMy3LC-5" value="&lt;font style=&quot;vertical-align: inherit;&quot;&gt;&lt;font style=&quot;vertical-align: inherit;&quot;&gt;morada&lt;/font&gt;&lt;/font&gt;" style="ellipse;whiteSpace=wrap;html=1;" parent="WIyWlLk6GJQsqaUBKTNV-1" vertex="1">
          <mxGeometry x="-380" y="1030" width="80" height="50" as="geometry" />
        </mxCell>
        <mxCell id="6uOjEQnala9XNtxMy3LC-6" value="" style="endArrow=none;html=1;rounded=0;" parent="WIyWlLk6GJQsqaUBKTNV-1" source="6uOjEQnala9XNtxMy3LC-3" target="6uOjEQnala9XNtxMy3LC-0" edge="1">
          <mxGeometry width="50" height="50" relative="1" as="geometry">
            <mxPoint x="-220" y="1070" as="sourcePoint" />
            <mxPoint x="-170" y="1020" as="targetPoint" />
          </mxGeometry>
        </mxCell>
        <mxCell id="6uOjEQnala9XNtxMy3LC-7" value="" style="endArrow=none;html=1;rounded=0;" parent="WIyWlLk6GJQsqaUBKTNV-1" source="6uOjEQnala9XNtxMy3LC-0" target="6uOjEQnala9XNtxMy3LC-4" edge="1">
          <mxGeometry width="50" height="50" relative="1" as="geometry">
            <mxPoint x="-220" y="1070" as="sourcePoint" />
            <mxPoint x="-170" y="1020" as="targetPoint" />
          </mxGeometry>
        </mxCell>
        <mxCell id="6uOjEQnala9XNtxMy3LC-8" value="" style="endArrow=none;html=1;rounded=0;" parent="WIyWlLk6GJQsqaUBKTNV-1" source="6uOjEQnala9XNtxMy3LC-5" target="6uOjEQnala9XNtxMy3LC-0" edge="1">
          <mxGeometry width="50" height="50" relative="1" as="geometry">
            <mxPoint x="-220" y="1070" as="sourcePoint" />
            <mxPoint x="-170" y="1020" as="targetPoint" />
          </mxGeometry>
        </mxCell>
        <mxCell id="6uOjEQnala9XNtxMy3LC-9" value="" style="endArrow=none;html=1;rounded=0;" parent="WIyWlLk6GJQsqaUBKTNV-1" source="6uOjEQnala9XNtxMy3LC-2" target="6uOjEQnala9XNtxMy3LC-0" edge="1">
          <mxGeometry width="50" height="50" relative="1" as="geometry">
            <mxPoint x="-220" y="1070" as="sourcePoint" />
            <mxPoint x="-170" y="1020" as="targetPoint" />
          </mxGeometry>
        </mxCell>
        <mxCell id="6uOjEQnala9XNtxMy3LC-10" value="" style="endArrow=none;html=1;rounded=0;" parent="WIyWlLk6GJQsqaUBKTNV-1" source="6uOjEQnala9XNtxMy3LC-0" target="6uOjEQnala9XNtxMy3LC-1" edge="1">
          <mxGeometry width="50" height="50" relative="1" as="geometry">
            <mxPoint x="-220" y="1070" as="sourcePoint" />
            <mxPoint x="-170" y="1020" as="targetPoint" />
          </mxGeometry>
        </mxCell>
        <mxCell id="6uOjEQnala9XNtxMy3LC-11" value="contactos" style="rounded=1;whiteSpace=wrap;html=1;" parent="WIyWlLk6GJQsqaUBKTNV-1" vertex="1">
          <mxGeometry x="-600" y="1074" width="120" height="60" as="geometry" />
        </mxCell>
        <mxCell id="6uOjEQnala9XNtxMy3LC-12" value="nome" style="ellipse;whiteSpace=wrap;html=1;" parent="WIyWlLk6GJQsqaUBKTNV-1" vertex="1">
          <mxGeometry x="-700" y="1074" width="80" height="40" as="geometry" />
        </mxCell>
        <mxCell id="6uOjEQnala9XNtxMy3LC-13" value="email" style="ellipse;whiteSpace=wrap;html=1;" parent="WIyWlLk6GJQsqaUBKTNV-1" vertex="1">
          <mxGeometry x="-640" y="999" width="70" height="50" as="geometry" />
        </mxCell>
        <mxCell id="6uOjEQnala9XNtxMy3LC-14" value="telemovel" style="ellipse;whiteSpace=wrap;html=1;" parent="WIyWlLk6GJQsqaUBKTNV-1" vertex="1">
          <mxGeometry x="-540" y="999" width="70" height="50" as="geometry" />
        </mxCell>
        <mxCell id="6uOjEQnala9XNtxMy3LC-15" value="id" style="ellipse;whiteSpace=wrap;html=1;" parent="WIyWlLk6GJQsqaUBKTNV-1" vertex="1">
          <mxGeometry x="-620" y="1144" width="60" height="40" as="geometry" />
        </mxCell>
        <mxCell id="6uOjEQnala9XNtxMy3LC-16" value="" style="endArrow=none;html=1;rounded=0;" parent="WIyWlLk6GJQsqaUBKTNV-1" source="6uOjEQnala9XNtxMy3LC-11" target="6uOjEQnala9XNtxMy3LC-15" edge="1">
          <mxGeometry width="50" height="50" relative="1" as="geometry">
            <mxPoint x="-440" y="1164" as="sourcePoint" />
            <mxPoint x="-390" y="1114" as="targetPoint" />
          </mxGeometry>
        </mxCell>
        <mxCell id="6uOjEQnala9XNtxMy3LC-17" value="" style="endArrow=none;html=1;rounded=0;" parent="WIyWlLk6GJQsqaUBKTNV-1" source="6uOjEQnala9XNtxMy3LC-12" target="6uOjEQnala9XNtxMy3LC-11" edge="1">
          <mxGeometry width="50" height="50" relative="1" as="geometry">
            <mxPoint x="-440" y="1164" as="sourcePoint" />
            <mxPoint x="-390" y="1114" as="targetPoint" />
          </mxGeometry>
        </mxCell>
        <mxCell id="6uOjEQnala9XNtxMy3LC-18" value="" style="endArrow=none;html=1;rounded=0;" parent="WIyWlLk6GJQsqaUBKTNV-1" source="6uOjEQnala9XNtxMy3LC-13" target="6uOjEQnala9XNtxMy3LC-11" edge="1">
          <mxGeometry width="50" height="50" relative="1" as="geometry">
            <mxPoint x="-440" y="1164" as="sourcePoint" />
            <mxPoint x="-390" y="1114" as="targetPoint" />
          </mxGeometry>
        </mxCell>
        <mxCell id="6uOjEQnala9XNtxMy3LC-19" value="" style="endArrow=none;html=1;rounded=0;" parent="WIyWlLk6GJQsqaUBKTNV-1" source="6uOjEQnala9XNtxMy3LC-11" target="6uOjEQnala9XNtxMy3LC-14" edge="1">
          <mxGeometry width="50" height="50" relative="1" as="geometry">
            <mxPoint x="-440" y="1164" as="sourcePoint" />
            <mxPoint x="-390" y="1114" as="targetPoint" />
          </mxGeometry>
        </mxCell>
        <mxCell id="6uOjEQnala9XNtxMy3LC-20" value="modalidades" style="rounded=1;whiteSpace=wrap;html=1;" parent="WIyWlLk6GJQsqaUBKTNV-1" vertex="1">
          <mxGeometry x="190" y="1140" width="120" height="60" as="geometry" />
        </mxCell>
        <mxCell id="6uOjEQnala9XNtxMy3LC-21" value="planos_treino" style="rounded=1;whiteSpace=wrap;html=1;" parent="WIyWlLk6GJQsqaUBKTNV-1" vertex="1">
          <mxGeometry x="500" y="1300" width="125" height="70" as="geometry" />
        </mxCell>
        <mxCell id="6uOjEQnala9XNtxMy3LC-22" value="id" style="ellipse;whiteSpace=wrap;html=1;" parent="WIyWlLk6GJQsqaUBKTNV-1" vertex="1">
          <mxGeometry x="470" y="1390" width="60" height="40" as="geometry" />
        </mxCell>
        <mxCell id="6uOjEQnala9XNtxMy3LC-23" value="descricao" style="ellipse;whiteSpace=wrap;html=1;" parent="WIyWlLk6GJQsqaUBKTNV-1" vertex="1">
          <mxGeometry x="570" y="1380" width="60" height="40" as="geometry" />
        </mxCell>
        <mxCell id="6uOjEQnala9XNtxMy3LC-24" value="" style="endArrow=none;html=1;rounded=0;" parent="WIyWlLk6GJQsqaUBKTNV-1" source="6uOjEQnala9XNtxMy3LC-123" target="6uOjEQnala9XNtxMy3LC-21" edge="1">
          <mxGeometry width="50" height="50" relative="1" as="geometry">
            <mxPoint x="380" y="1340" as="sourcePoint" />
            <mxPoint x="430" y="1290" as="targetPoint" />
            <Array as="points">
              <mxPoint x="565" y="1170" />
            </Array>
          </mxGeometry>
        </mxCell>
        <mxCell id="6uOjEQnala9XNtxMy3LC-25" value="M" style="edgeLabel;html=1;align=center;verticalAlign=middle;resizable=0;points=[];" parent="6uOjEQnala9XNtxMy3LC-24" connectable="0" vertex="1">
          <mxGeometry x="0.9279" relative="1" as="geometry">
            <mxPoint as="offset" />
          </mxGeometry>
        </mxCell>
        <mxCell id="6uOjEQnala9XNtxMy3LC-26" value="" style="endArrow=none;html=1;rounded=0;" parent="WIyWlLk6GJQsqaUBKTNV-1" source="6uOjEQnala9XNtxMy3LC-22" target="6uOjEQnala9XNtxMy3LC-21" edge="1">
          <mxGeometry width="50" height="50" relative="1" as="geometry">
            <mxPoint x="380" y="1340" as="sourcePoint" />
            <mxPoint x="430" y="1290" as="targetPoint" />
          </mxGeometry>
        </mxCell>
        <mxCell id="6uOjEQnala9XNtxMy3LC-27" value="" style="endArrow=none;html=1;rounded=0;" parent="WIyWlLk6GJQsqaUBKTNV-1" source="6uOjEQnala9XNtxMy3LC-23" target="6uOjEQnala9XNtxMy3LC-21" edge="1">
          <mxGeometry width="50" height="50" relative="1" as="geometry">
            <mxPoint x="380" y="1340" as="sourcePoint" />
            <mxPoint x="430" y="1290" as="targetPoint" />
          </mxGeometry>
        </mxCell>
        <mxCell id="6uOjEQnala9XNtxMy3LC-28" value="" style="endArrow=none;html=1;rounded=0;entryX=0;entryY=0.5;entryDx=0;entryDy=0;exitX=0.75;exitY=1;exitDx=0;exitDy=0;" parent="WIyWlLk6GJQsqaUBKTNV-1" source="6uOjEQnala9XNtxMy3LC-0" target="6uOjEQnala9XNtxMy3LC-30" edge="1">
          <mxGeometry width="50" height="50" relative="1" as="geometry">
            <mxPoint x="-240" y="1160" as="sourcePoint" />
            <mxPoint x="500" y="1305" as="targetPoint" />
            <Array as="points">
              <mxPoint x="-210" y="1310" />
            </Array>
          </mxGeometry>
        </mxCell>
        <mxCell id="6uOjEQnala9XNtxMy3LC-29" value="&lt;font style=&quot;font-size: 16px;&quot;&gt;1&lt;/font&gt;" style="edgeLabel;html=1;align=center;verticalAlign=middle;resizable=0;points=[];" parent="6uOjEQnala9XNtxMy3LC-28" connectable="0" vertex="1">
          <mxGeometry x="-0.9246" relative="1" as="geometry">
            <mxPoint as="offset" />
          </mxGeometry>
        </mxCell>
        <mxCell id="6uOjEQnala9XNtxMy3LC-30" value="fazer" style="rhombus;whiteSpace=wrap;html=1;" parent="WIyWlLk6GJQsqaUBKTNV-1" vertex="1">
          <mxGeometry x="-82" y="1270" width="80" height="80" as="geometry" />
        </mxCell>
        <mxCell id="6uOjEQnala9XNtxMy3LC-31" value="" style="endArrow=none;html=1;rounded=0;entryX=0;entryY=0.25;entryDx=0;entryDy=0;exitX=1;exitY=0.5;exitDx=0;exitDy=0;" parent="WIyWlLk6GJQsqaUBKTNV-1" source="6uOjEQnala9XNtxMy3LC-155" target="6uOjEQnala9XNtxMy3LC-21" edge="1">
          <mxGeometry width="50" height="50" relative="1" as="geometry">
            <mxPoint x="140" y="1370" as="sourcePoint" />
            <mxPoint x="190" y="1320" as="targetPoint" />
          </mxGeometry>
        </mxCell>
        <mxCell id="6uOjEQnala9XNtxMy3LC-32" value="&lt;font style=&quot;font-size: 15px;&quot;&gt;N&lt;/font&gt;" style="edgeLabel;html=1;align=center;verticalAlign=middle;resizable=0;points=[];" parent="6uOjEQnala9XNtxMy3LC-31" connectable="0" vertex="1">
          <mxGeometry x="0.919" y="-1" relative="1" as="geometry">
            <mxPoint as="offset" />
          </mxGeometry>
        </mxCell>
        <mxCell id="6uOjEQnala9XNtxMy3LC-33" value="ter" style="rhombus;whiteSpace=wrap;html=1;" parent="WIyWlLk6GJQsqaUBKTNV-1" vertex="1">
          <mxGeometry x="40" y="1320" width="80" height="80" as="geometry" />
        </mxCell>
        <mxCell id="6uOjEQnala9XNtxMy3LC-34" value="" style="endArrow=none;html=1;rounded=0;entryX=1;entryY=0.5;entryDx=0;entryDy=0;exitX=0;exitY=0.75;exitDx=0;exitDy=0;" parent="WIyWlLk6GJQsqaUBKTNV-1" source="6uOjEQnala9XNtxMy3LC-153" target="6uOjEQnala9XNtxMy3LC-33" edge="1">
          <mxGeometry width="50" height="50" relative="1" as="geometry">
            <mxPoint x="500" y="1340" as="sourcePoint" />
            <mxPoint x="120" y="1370" as="targetPoint" />
            <Array as="points" />
          </mxGeometry>
        </mxCell>
        <mxCell id="6uOjEQnala9XNtxMy3LC-35" value="" style="endArrow=none;html=1;rounded=0;exitX=0;exitY=0.5;exitDx=0;exitDy=0;entryX=0.5;entryY=1;entryDx=0;entryDy=0;" parent="WIyWlLk6GJQsqaUBKTNV-1" source="6uOjEQnala9XNtxMy3LC-33" target="6uOjEQnala9XNtxMy3LC-0" edge="1">
          <mxGeometry width="50" height="50" relative="1" as="geometry">
            <mxPoint x="30" y="1470" as="sourcePoint" />
            <mxPoint x="-300" y="1370" as="targetPoint" />
            <Array as="points">
              <mxPoint x="-240" y="1360" />
            </Array>
          </mxGeometry>
        </mxCell>
        <mxCell id="6uOjEQnala9XNtxMy3LC-36" value="&lt;font style=&quot;font-size: 16px;&quot;&gt;1&lt;/font&gt;" style="edgeLabel;html=1;align=center;verticalAlign=middle;resizable=0;points=[];" parent="6uOjEQnala9XNtxMy3LC-35" connectable="0" vertex="1">
          <mxGeometry x="0.9479" y="1" relative="1" as="geometry">
            <mxPoint as="offset" />
          </mxGeometry>
        </mxCell>
        <mxCell id="6uOjEQnala9XNtxMy3LC-37" value="id" style="ellipse;whiteSpace=wrap;html=1;" parent="WIyWlLk6GJQsqaUBKTNV-1" vertex="1">
          <mxGeometry x="120" y="1075" width="60" height="40" as="geometry" />
        </mxCell>
        <mxCell id="6uOjEQnala9XNtxMy3LC-38" value="" style="endArrow=none;html=1;rounded=0;" parent="WIyWlLk6GJQsqaUBKTNV-1" source="6uOjEQnala9XNtxMy3LC-20" target="6uOjEQnala9XNtxMy3LC-37" edge="1">
          <mxGeometry width="50" height="50" relative="1" as="geometry">
            <mxPoint x="-10" y="1300" as="sourcePoint" />
            <mxPoint x="40" y="1250" as="targetPoint" />
          </mxGeometry>
        </mxCell>
        <mxCell id="6uOjEQnala9XNtxMy3LC-39" value="descricao" style="ellipse;whiteSpace=wrap;html=1;" parent="WIyWlLk6GJQsqaUBKTNV-1" vertex="1">
          <mxGeometry x="240" y="1065" width="70" height="40" as="geometry" />
        </mxCell>
        <mxCell id="6uOjEQnala9XNtxMy3LC-40" value="" style="endArrow=none;html=1;rounded=0;" parent="WIyWlLk6GJQsqaUBKTNV-1" source="6uOjEQnala9XNtxMy3LC-20" target="6uOjEQnala9XNtxMy3LC-39" edge="1">
          <mxGeometry width="50" height="50" relative="1" as="geometry">
            <mxPoint x="-10" y="1300" as="sourcePoint" />
            <mxPoint x="40" y="1250" as="targetPoint" />
          </mxGeometry>
        </mxCell>
        <mxCell id="6uOjEQnala9XNtxMy3LC-41" value="fotos" style="rounded=1;whiteSpace=wrap;html=1;" parent="WIyWlLk6GJQsqaUBKTNV-1" vertex="1">
          <mxGeometry x="-490" y="1245" width="120" height="60" as="geometry" />
        </mxCell>
        <mxCell id="6uOjEQnala9XNtxMy3LC-42" value="id" style="ellipse;whiteSpace=wrap;html=1;" parent="WIyWlLk6GJQsqaUBKTNV-1" vertex="1">
          <mxGeometry x="-520" y="1335" width="60" height="40" as="geometry" />
        </mxCell>
        <mxCell id="6uOjEQnala9XNtxMy3LC-43" value="" style="endArrow=none;html=1;rounded=0;" parent="WIyWlLk6GJQsqaUBKTNV-1" source="6uOjEQnala9XNtxMy3LC-42" target="6uOjEQnala9XNtxMy3LC-41" edge="1">
          <mxGeometry width="50" height="50" relative="1" as="geometry">
            <mxPoint x="50" y="1255" as="sourcePoint" />
            <mxPoint x="100" y="1205" as="targetPoint" />
          </mxGeometry>
        </mxCell>
        <mxCell id="6uOjEQnala9XNtxMy3LC-44" value="titulo" style="ellipse;whiteSpace=wrap;html=1;" parent="WIyWlLk6GJQsqaUBKTNV-1" vertex="1">
          <mxGeometry x="-430" y="1335" width="60" height="40" as="geometry" />
        </mxCell>
        <mxCell id="6uOjEQnala9XNtxMy3LC-45" value="" style="endArrow=none;html=1;rounded=0;" parent="WIyWlLk6GJQsqaUBKTNV-1" source="6uOjEQnala9XNtxMy3LC-44" target="6uOjEQnala9XNtxMy3LC-41" edge="1">
          <mxGeometry width="50" height="50" relative="1" as="geometry">
            <mxPoint x="50" y="1255" as="sourcePoint" />
            <mxPoint x="100" y="1205" as="targetPoint" />
          </mxGeometry>
        </mxCell>
        <mxCell id="6uOjEQnala9XNtxMy3LC-46" value="eventos" style="rounded=1;whiteSpace=wrap;html=1;" parent="WIyWlLk6GJQsqaUBKTNV-1" vertex="1">
          <mxGeometry x="-350" y="1694" width="120" height="60" as="geometry" />
        </mxCell>
        <mxCell id="6uOjEQnala9XNtxMy3LC-47" value="Plano_inicial" style="rounded=1;whiteSpace=wrap;html=1;" parent="WIyWlLk6GJQsqaUBKTNV-1" vertex="1">
          <mxGeometry x="510" y="1520" width="120" height="60" as="geometry" />
        </mxCell>
        <mxCell id="6uOjEQnala9XNtxMy3LC-48" value="Preço" style="ellipse;whiteSpace=wrap;html=1;" parent="WIyWlLk6GJQsqaUBKTNV-1" vertex="1">
          <mxGeometry x="630" y="1620" width="70" height="50" as="geometry" />
        </mxCell>
        <mxCell id="6uOjEQnala9XNtxMy3LC-49" value="Id" style="ellipse;whiteSpace=wrap;html=1;" parent="WIyWlLk6GJQsqaUBKTNV-1" vertex="1">
          <mxGeometry x="530" y="1620" width="70" height="50" as="geometry" />
        </mxCell>
        <mxCell id="6uOjEQnala9XNtxMy3LC-50" value="titulo" style="ellipse;whiteSpace=wrap;html=1;" parent="WIyWlLk6GJQsqaUBKTNV-1" vertex="1">
          <mxGeometry x="430" y="1600" width="70" height="50" as="geometry" />
        </mxCell>
        <mxCell id="6uOjEQnala9XNtxMy3LC-51" value="descricao" style="ellipse;whiteSpace=wrap;html=1;" parent="WIyWlLk6GJQsqaUBKTNV-1" vertex="1">
          <mxGeometry x="670" y="1540" width="70" height="50" as="geometry" />
        </mxCell>
        <mxCell id="6uOjEQnala9XNtxMy3LC-52" value="" style="endArrow=none;html=1;rounded=0;" parent="WIyWlLk6GJQsqaUBKTNV-1" source="6uOjEQnala9XNtxMy3LC-50" target="6uOjEQnala9XNtxMy3LC-47" edge="1">
          <mxGeometry width="50" height="50" relative="1" as="geometry">
            <mxPoint x="370" y="1570" as="sourcePoint" />
            <mxPoint x="420" y="1520" as="targetPoint" />
          </mxGeometry>
        </mxCell>
        <mxCell id="6uOjEQnala9XNtxMy3LC-53" value="" style="endArrow=none;html=1;rounded=0;" parent="WIyWlLk6GJQsqaUBKTNV-1" source="6uOjEQnala9XNtxMy3LC-49" target="6uOjEQnala9XNtxMy3LC-47" edge="1">
          <mxGeometry width="50" height="50" relative="1" as="geometry">
            <mxPoint x="370" y="1570" as="sourcePoint" />
            <mxPoint x="420" y="1520" as="targetPoint" />
          </mxGeometry>
        </mxCell>
        <mxCell id="6uOjEQnala9XNtxMy3LC-54" value="" style="endArrow=none;html=1;rounded=0;" parent="WIyWlLk6GJQsqaUBKTNV-1" source="6uOjEQnala9XNtxMy3LC-48" target="6uOjEQnala9XNtxMy3LC-47" edge="1">
          <mxGeometry width="50" height="50" relative="1" as="geometry">
            <mxPoint x="540" y="1630" as="sourcePoint" />
            <mxPoint x="590" y="1580" as="targetPoint" />
          </mxGeometry>
        </mxCell>
        <mxCell id="6uOjEQnala9XNtxMy3LC-55" value="" style="endArrow=none;html=1;rounded=0;" parent="WIyWlLk6GJQsqaUBKTNV-1" source="6uOjEQnala9XNtxMy3LC-51" target="6uOjEQnala9XNtxMy3LC-47" edge="1">
          <mxGeometry width="50" height="50" relative="1" as="geometry">
            <mxPoint x="540" y="1630" as="sourcePoint" />
            <mxPoint x="590" y="1580" as="targetPoint" />
          </mxGeometry>
        </mxCell>
        <mxCell id="6uOjEQnala9XNtxMy3LC-56" value="inscricao" style="rounded=1;whiteSpace=wrap;html=1;" parent="WIyWlLk6GJQsqaUBKTNV-1" vertex="1">
          <mxGeometry x="60" y="1520" width="120" height="60" as="geometry" />
        </mxCell>
        <mxCell id="6uOjEQnala9XNtxMy3LC-57" value="data" style="ellipse;whiteSpace=wrap;html=1;" parent="WIyWlLk6GJQsqaUBKTNV-1" vertex="1">
          <mxGeometry x="180" y="1460" width="60" height="40" as="geometry" />
        </mxCell>
        <mxCell id="6uOjEQnala9XNtxMy3LC-58" value="id" style="ellipse;whiteSpace=wrap;html=1;" parent="WIyWlLk6GJQsqaUBKTNV-1" vertex="1">
          <mxGeometry x="90" y="1460" width="60" height="40" as="geometry" />
        </mxCell>
        <mxCell id="6uOjEQnala9XNtxMy3LC-59" value="preço" style="ellipse;whiteSpace=wrap;html=1;" parent="WIyWlLk6GJQsqaUBKTNV-1" vertex="1">
          <mxGeometry y="1460" width="70" height="40" as="geometry" />
        </mxCell>
        <mxCell id="6uOjEQnala9XNtxMy3LC-60" value="" style="endArrow=none;html=1;rounded=0;" parent="WIyWlLk6GJQsqaUBKTNV-1" source="6uOjEQnala9XNtxMy3LC-56" target="6uOjEQnala9XNtxMy3LC-57" edge="1">
          <mxGeometry width="50" height="50" relative="1" as="geometry">
            <mxPoint x="160" y="1580" as="sourcePoint" />
            <mxPoint x="210" y="1530" as="targetPoint" />
          </mxGeometry>
        </mxCell>
        <mxCell id="6uOjEQnala9XNtxMy3LC-61" value="" style="endArrow=none;html=1;rounded=0;" parent="WIyWlLk6GJQsqaUBKTNV-1" source="6uOjEQnala9XNtxMy3LC-58" target="6uOjEQnala9XNtxMy3LC-56" edge="1">
          <mxGeometry width="50" height="50" relative="1" as="geometry">
            <mxPoint x="160" y="1580" as="sourcePoint" />
            <mxPoint x="210" y="1530" as="targetPoint" />
          </mxGeometry>
        </mxCell>
        <mxCell id="6uOjEQnala9XNtxMy3LC-62" value="" style="endArrow=none;html=1;rounded=0;" parent="WIyWlLk6GJQsqaUBKTNV-1" source="6uOjEQnala9XNtxMy3LC-59" target="6uOjEQnala9XNtxMy3LC-56" edge="1">
          <mxGeometry width="50" height="50" relative="1" as="geometry">
            <mxPoint x="160" y="1580" as="sourcePoint" />
            <mxPoint x="210" y="1530" as="targetPoint" />
          </mxGeometry>
        </mxCell>
        <mxCell id="6uOjEQnala9XNtxMy3LC-63" value="tem" style="rhombus;whiteSpace=wrap;html=1;" parent="WIyWlLk6GJQsqaUBKTNV-1" vertex="1">
          <mxGeometry x="310" y="1510" width="80" height="80" as="geometry" />
        </mxCell>
        <mxCell id="6uOjEQnala9XNtxMy3LC-64" value="" style="endArrow=none;html=1;rounded=0;entryX=0;entryY=0.5;entryDx=0;entryDy=0;exitX=1;exitY=0.5;exitDx=0;exitDy=0;" parent="WIyWlLk6GJQsqaUBKTNV-1" source="6uOjEQnala9XNtxMy3LC-150" target="6uOjEQnala9XNtxMy3LC-63" edge="1">
          <mxGeometry width="50" height="50" relative="1" as="geometry">
            <mxPoint x="160" y="1580" as="sourcePoint" />
            <mxPoint x="210" y="1530" as="targetPoint" />
          </mxGeometry>
        </mxCell>
        <mxCell id="6uOjEQnala9XNtxMy3LC-65" value="" style="endArrow=none;html=1;rounded=0;entryX=0;entryY=0.5;entryDx=0;entryDy=0;" parent="WIyWlLk6GJQsqaUBKTNV-1" source="6uOjEQnala9XNtxMy3LC-63" target="6uOjEQnala9XNtxMy3LC-47" edge="1">
          <mxGeometry width="50" height="50" relative="1" as="geometry">
            <mxPoint x="160" y="1580" as="sourcePoint" />
            <mxPoint x="210" y="1530" as="targetPoint" />
          </mxGeometry>
        </mxCell>
        <mxCell id="6uOjEQnala9XNtxMy3LC-66" value="&lt;font style=&quot;font-size: 17px;&quot;&gt;1&lt;/font&gt;" style="edgeLabel;html=1;align=center;verticalAlign=middle;resizable=0;points=[];" parent="6uOjEQnala9XNtxMy3LC-65" connectable="0" vertex="1">
          <mxGeometry x="0.8557" relative="1" as="geometry">
            <mxPoint as="offset" />
          </mxGeometry>
        </mxCell>
        <mxCell id="6uOjEQnala9XNtxMy3LC-67" value="" style="endArrow=none;html=1;rounded=0;entryX=0;entryY=0.5;entryDx=0;entryDy=0;exitX=0.25;exitY=1;exitDx=0;exitDy=0;" parent="WIyWlLk6GJQsqaUBKTNV-1" source="6uOjEQnala9XNtxMy3LC-0" target="6uOjEQnala9XNtxMy3LC-69" edge="1">
          <mxGeometry width="50" height="50" relative="1" as="geometry">
            <mxPoint x="-300" y="1160" as="sourcePoint" />
            <mxPoint x="60" y="1550" as="targetPoint" />
            <Array as="points">
              <mxPoint x="-270" y="1550" />
            </Array>
          </mxGeometry>
        </mxCell>
        <mxCell id="6uOjEQnala9XNtxMy3LC-68" value="&lt;font style=&quot;font-size: 16px;&quot;&gt;1&lt;/font&gt;" style="edgeLabel;html=1;align=center;verticalAlign=middle;resizable=0;points=[];" parent="6uOjEQnala9XNtxMy3LC-67" connectable="0" vertex="1">
          <mxGeometry x="-0.94" y="1" relative="1" as="geometry">
            <mxPoint as="offset" />
          </mxGeometry>
        </mxCell>
        <mxCell id="6uOjEQnala9XNtxMy3LC-69" value="fazer" style="rhombus;whiteSpace=wrap;html=1;" parent="WIyWlLk6GJQsqaUBKTNV-1" vertex="1">
          <mxGeometry x="-130" y="1510" width="80" height="80" as="geometry" />
        </mxCell>
        <mxCell id="6uOjEQnala9XNtxMy3LC-70" value="" style="endArrow=none;html=1;rounded=0;entryX=0;entryY=0.5;entryDx=0;entryDy=0;exitX=1;exitY=0.5;exitDx=0;exitDy=0;" parent="WIyWlLk6GJQsqaUBKTNV-1" source="6uOjEQnala9XNtxMy3LC-147" target="6uOjEQnala9XNtxMy3LC-56" edge="1">
          <mxGeometry width="50" height="50" relative="1" as="geometry">
            <mxPoint x="-100" y="1490" as="sourcePoint" />
            <mxPoint x="-50" y="1440" as="targetPoint" />
          </mxGeometry>
        </mxCell>
        <mxCell id="6uOjEQnala9XNtxMy3LC-71" value="&lt;font style=&quot;font-size: 17px;&quot;&gt;1&lt;/font&gt;" style="edgeLabel;html=1;align=center;verticalAlign=middle;resizable=0;points=[];" parent="6uOjEQnala9XNtxMy3LC-70" connectable="0" vertex="1">
          <mxGeometry x="0.8091" y="-1" relative="1" as="geometry">
            <mxPoint as="offset" />
          </mxGeometry>
        </mxCell>
        <mxCell id="6uOjEQnala9XNtxMy3LC-72" value="id" style="ellipse;whiteSpace=wrap;html=1;" parent="WIyWlLk6GJQsqaUBKTNV-1" vertex="1">
          <mxGeometry x="-265" y="1625" width="60" height="40" as="geometry" />
        </mxCell>
        <mxCell id="6uOjEQnala9XNtxMy3LC-73" value="" style="endArrow=none;html=1;rounded=0;" parent="WIyWlLk6GJQsqaUBKTNV-1" source="6uOjEQnala9XNtxMy3LC-46" target="6uOjEQnala9XNtxMy3LC-72" edge="1">
          <mxGeometry width="50" height="50" relative="1" as="geometry">
            <mxPoint x="-140" y="1620" as="sourcePoint" />
            <mxPoint x="-90" y="1570" as="targetPoint" />
          </mxGeometry>
        </mxCell>
        <mxCell id="6uOjEQnala9XNtxMy3LC-74" value="ter" style="rhombus;whiteSpace=wrap;html=1;" parent="WIyWlLk6GJQsqaUBKTNV-1" vertex="1">
          <mxGeometry x="-90" y="1684" width="80" height="80" as="geometry" />
        </mxCell>
        <mxCell id="6uOjEQnala9XNtxMy3LC-75" value="" style="endArrow=none;html=1;rounded=0;exitX=1;exitY=0.5;exitDx=0;exitDy=0;entryX=0;entryY=0.5;entryDx=0;entryDy=0;" parent="WIyWlLk6GJQsqaUBKTNV-1" source="6uOjEQnala9XNtxMy3LC-46" target="6uOjEQnala9XNtxMy3LC-74" edge="1">
          <mxGeometry width="50" height="50" relative="1" as="geometry">
            <mxPoint x="-120" y="1630" as="sourcePoint" />
            <mxPoint x="-70" y="1580" as="targetPoint" />
          </mxGeometry>
        </mxCell>
        <mxCell id="6uOjEQnala9XNtxMy3LC-76" value="&lt;font style=&quot;font-size: 17px;&quot;&gt;1&lt;/font&gt;" style="edgeLabel;html=1;align=center;verticalAlign=middle;resizable=0;points=[];" parent="6uOjEQnala9XNtxMy3LC-75" connectable="0" vertex="1">
          <mxGeometry x="-0.8143" relative="1" as="geometry">
            <mxPoint as="offset" />
          </mxGeometry>
        </mxCell>
        <mxCell id="6uOjEQnala9XNtxMy3LC-77" value="imagem_evento" style="rounded=1;whiteSpace=wrap;html=1;" parent="WIyWlLk6GJQsqaUBKTNV-1" vertex="1">
          <mxGeometry x="120" y="1694" width="120" height="60" as="geometry" />
        </mxCell>
        <mxCell id="6uOjEQnala9XNtxMy3LC-78" value="" style="endArrow=none;html=1;rounded=0;exitX=1;exitY=0.5;exitDx=0;exitDy=0;entryX=0;entryY=0.5;entryDx=0;entryDy=0;" parent="WIyWlLk6GJQsqaUBKTNV-1" source="6uOjEQnala9XNtxMy3LC-157" target="6uOjEQnala9XNtxMy3LC-77" edge="1">
          <mxGeometry width="50" height="50" relative="1" as="geometry">
            <mxPoint x="90" y="1650" as="sourcePoint" />
            <mxPoint x="140" y="1600" as="targetPoint" />
          </mxGeometry>
        </mxCell>
        <mxCell id="6uOjEQnala9XNtxMy3LC-79" value="&lt;font style=&quot;font-size: 15px;&quot;&gt;N&lt;/font&gt;" style="edgeLabel;html=1;align=center;verticalAlign=middle;resizable=0;points=[];" parent="6uOjEQnala9XNtxMy3LC-78" connectable="0" vertex="1">
          <mxGeometry x="0.9133" y="1" relative="1" as="geometry">
            <mxPoint as="offset" />
          </mxGeometry>
        </mxCell>
        <mxCell id="6uOjEQnala9XNtxMy3LC-80" value="Id" style="ellipse;whiteSpace=wrap;html=1;" parent="WIyWlLk6GJQsqaUBKTNV-1" vertex="1">
          <mxGeometry x="200" y="1630" width="60" height="40" as="geometry" />
        </mxCell>
        <mxCell id="6uOjEQnala9XNtxMy3LC-81" value="Pricipio" style="ellipse;whiteSpace=wrap;html=1;" parent="WIyWlLk6GJQsqaUBKTNV-1" vertex="1">
          <mxGeometry x="120" y="1630" width="60" height="40" as="geometry" />
        </mxCell>
        <mxCell id="6uOjEQnala9XNtxMy3LC-82" value="Imagem" style="ellipse;whiteSpace=wrap;html=1;" parent="WIyWlLk6GJQsqaUBKTNV-1" vertex="1">
          <mxGeometry x="270" y="1704" width="50" height="40" as="geometry" />
        </mxCell>
        <mxCell id="6uOjEQnala9XNtxMy3LC-83" value="" style="endArrow=none;html=1;rounded=0;" parent="WIyWlLk6GJQsqaUBKTNV-1" source="6uOjEQnala9XNtxMy3LC-77" target="6uOjEQnala9XNtxMy3LC-81" edge="1">
          <mxGeometry width="50" height="50" relative="1" as="geometry">
            <mxPoint x="60" y="1760" as="sourcePoint" />
            <mxPoint x="110" y="1710" as="targetPoint" />
          </mxGeometry>
        </mxCell>
        <mxCell id="6uOjEQnala9XNtxMy3LC-84" value="" style="endArrow=none;html=1;rounded=0;" parent="WIyWlLk6GJQsqaUBKTNV-1" source="6uOjEQnala9XNtxMy3LC-77" target="6uOjEQnala9XNtxMy3LC-80" edge="1">
          <mxGeometry width="50" height="50" relative="1" as="geometry">
            <mxPoint x="60" y="1760" as="sourcePoint" />
            <mxPoint x="110" y="1710" as="targetPoint" />
          </mxGeometry>
        </mxCell>
        <mxCell id="6uOjEQnala9XNtxMy3LC-85" value="" style="endArrow=none;html=1;rounded=0;" parent="WIyWlLk6GJQsqaUBKTNV-1" source="6uOjEQnala9XNtxMy3LC-82" target="6uOjEQnala9XNtxMy3LC-77" edge="1">
          <mxGeometry width="50" height="50" relative="1" as="geometry">
            <mxPoint x="60" y="1760" as="sourcePoint" />
            <mxPoint x="180" y="1720" as="targetPoint" />
          </mxGeometry>
        </mxCell>
        <mxCell id="6uOjEQnala9XNtxMy3LC-86" value="Lista" style="ellipse;whiteSpace=wrap;html=1;" parent="WIyWlLk6GJQsqaUBKTNV-1" vertex="1">
          <mxGeometry x="-270" y="1780" width="60" height="50" as="geometry" />
        </mxCell>
        <mxCell id="6uOjEQnala9XNtxMy3LC-87" value="" style="endArrow=none;html=1;rounded=0;" parent="WIyWlLk6GJQsqaUBKTNV-1" source="6uOjEQnala9XNtxMy3LC-86" target="6uOjEQnala9XNtxMy3LC-46" edge="1">
          <mxGeometry width="50" height="50" relative="1" as="geometry">
            <mxPoint x="-110" y="1760" as="sourcePoint" />
            <mxPoint x="-60" y="1710" as="targetPoint" />
          </mxGeometry>
        </mxCell>
        <mxCell id="6uOjEQnala9XNtxMy3LC-88" value="descricao" style="ellipse;whiteSpace=wrap;html=1;" parent="WIyWlLk6GJQsqaUBKTNV-1" vertex="1">
          <mxGeometry x="-380" y="1780" width="63" height="46" as="geometry" />
        </mxCell>
        <mxCell id="6uOjEQnala9XNtxMy3LC-89" value="" style="endArrow=none;html=1;rounded=0;" parent="WIyWlLk6GJQsqaUBKTNV-1" source="6uOjEQnala9XNtxMy3LC-88" target="6uOjEQnala9XNtxMy3LC-46" edge="1">
          <mxGeometry width="50" height="50" relative="1" as="geometry">
            <mxPoint x="-130" y="1570" as="sourcePoint" />
            <mxPoint x="-80" y="1520" as="targetPoint" />
          </mxGeometry>
        </mxCell>
        <mxCell id="6uOjEQnala9XNtxMy3LC-90" value="workshop" style="rounded=1;whiteSpace=wrap;html=1;" parent="WIyWlLk6GJQsqaUBKTNV-1" vertex="1">
          <mxGeometry x="-542" y="1480" width="120" height="60" as="geometry" />
        </mxCell>
        <mxCell id="6uOjEQnala9XNtxMy3LC-91" value="id" style="ellipse;whiteSpace=wrap;html=1;" parent="WIyWlLk6GJQsqaUBKTNV-1" vertex="1">
          <mxGeometry x="-452" y="1564" width="60" height="40" as="geometry" />
        </mxCell>
        <mxCell id="6uOjEQnala9XNtxMy3LC-92" value="data" style="ellipse;whiteSpace=wrap;html=1;" parent="WIyWlLk6GJQsqaUBKTNV-1" vertex="1">
          <mxGeometry x="-542" y="1564" width="60" height="40" as="geometry" />
        </mxCell>
        <mxCell id="6uOjEQnala9XNtxMy3LC-93" value="tema" style="ellipse;whiteSpace=wrap;html=1;" parent="WIyWlLk6GJQsqaUBKTNV-1" vertex="1">
          <mxGeometry x="-602" y="1430" width="60" height="40" as="geometry" />
        </mxCell>
        <mxCell id="6uOjEQnala9XNtxMy3LC-94" value="duracao" style="ellipse;whiteSpace=wrap;html=1;" parent="WIyWlLk6GJQsqaUBKTNV-1" vertex="1">
          <mxGeometry x="-452" y="1420" width="70" height="40" as="geometry" />
        </mxCell>
        <mxCell id="6uOjEQnala9XNtxMy3LC-95" value="" style="endArrow=none;html=1;rounded=0;" parent="WIyWlLk6GJQsqaUBKTNV-1" source="6uOjEQnala9XNtxMy3LC-90" target="6uOjEQnala9XNtxMy3LC-93" edge="1">
          <mxGeometry width="50" height="50" relative="1" as="geometry">
            <mxPoint x="-362" y="1540" as="sourcePoint" />
            <mxPoint x="-312" y="1490" as="targetPoint" />
          </mxGeometry>
        </mxCell>
        <mxCell id="6uOjEQnala9XNtxMy3LC-96" value="" style="endArrow=none;html=1;rounded=0;" parent="WIyWlLk6GJQsqaUBKTNV-1" source="6uOjEQnala9XNtxMy3LC-90" target="6uOjEQnala9XNtxMy3LC-91" edge="1">
          <mxGeometry width="50" height="50" relative="1" as="geometry">
            <mxPoint x="-362" y="1540" as="sourcePoint" />
            <mxPoint x="-312" y="1490" as="targetPoint" />
          </mxGeometry>
        </mxCell>
        <mxCell id="6uOjEQnala9XNtxMy3LC-97" value="" style="endArrow=none;html=1;rounded=0;" parent="WIyWlLk6GJQsqaUBKTNV-1" source="6uOjEQnala9XNtxMy3LC-90" target="6uOjEQnala9XNtxMy3LC-92" edge="1">
          <mxGeometry width="50" height="50" relative="1" as="geometry">
            <mxPoint x="-362" y="1540" as="sourcePoint" />
            <mxPoint x="-312" y="1490" as="targetPoint" />
          </mxGeometry>
        </mxCell>
        <mxCell id="6uOjEQnala9XNtxMy3LC-98" value="" style="endArrow=none;html=1;rounded=0;" parent="WIyWlLk6GJQsqaUBKTNV-1" source="6uOjEQnala9XNtxMy3LC-90" target="6uOjEQnala9XNtxMy3LC-94" edge="1">
          <mxGeometry width="50" height="50" relative="1" as="geometry">
            <mxPoint x="-362" y="1540" as="sourcePoint" />
            <mxPoint x="-312" y="1490" as="targetPoint" />
          </mxGeometry>
        </mxCell>
        <mxCell id="6uOjEQnala9XNtxMy3LC-99" value="descricao" style="ellipse;whiteSpace=wrap;html=1;" parent="WIyWlLk6GJQsqaUBKTNV-1" vertex="1">
          <mxGeometry x="-387" y="1485" width="70" height="50" as="geometry" />
        </mxCell>
        <mxCell id="6uOjEQnala9XNtxMy3LC-100" value="" style="endArrow=none;html=1;rounded=0;" parent="WIyWlLk6GJQsqaUBKTNV-1" source="6uOjEQnala9XNtxMy3LC-90" target="6uOjEQnala9XNtxMy3LC-99" edge="1">
          <mxGeometry width="50" height="50" relative="1" as="geometry">
            <mxPoint x="-362" y="1540" as="sourcePoint" />
            <mxPoint x="-312" y="1490" as="targetPoint" />
          </mxGeometry>
        </mxCell>
        <mxCell id="6uOjEQnala9XNtxMy3LC-101" value="ter" style="rhombus;whiteSpace=wrap;html=1;" parent="WIyWlLk6GJQsqaUBKTNV-1" vertex="1">
          <mxGeometry x="-650" y="1235" width="80" height="80" as="geometry" />
        </mxCell>
        <mxCell id="6uOjEQnala9XNtxMy3LC-102" value="" style="endArrow=none;html=1;rounded=0;" parent="WIyWlLk6GJQsqaUBKTNV-1" source="6uOjEQnala9XNtxMy3LC-159" target="6uOjEQnala9XNtxMy3LC-41" edge="1">
          <mxGeometry width="50" height="50" relative="1" as="geometry">
            <mxPoint x="-130" y="1395" as="sourcePoint" />
            <mxPoint x="-80" y="1345" as="targetPoint" />
          </mxGeometry>
        </mxCell>
        <mxCell id="6uOjEQnala9XNtxMy3LC-103" value="&lt;font style=&quot;font-size: 14px;&quot;&gt;N&lt;/font&gt;" style="edgeLabel;html=1;align=center;verticalAlign=middle;resizable=0;points=[];" parent="6uOjEQnala9XNtxMy3LC-102" connectable="0" vertex="1">
          <mxGeometry x="0.7912" relative="1" as="geometry">
            <mxPoint as="offset" />
          </mxGeometry>
        </mxCell>
        <mxCell id="6uOjEQnala9XNtxMy3LC-104" value="&lt;font style=&quot;vertical-align: inherit;&quot;&gt;&lt;font style=&quot;vertical-align: inherit;&quot;&gt;album&lt;/font&gt;&lt;/font&gt;" style="rounded=1;whiteSpace=wrap;html=1;" parent="WIyWlLk6GJQsqaUBKTNV-1" vertex="1">
          <mxGeometry x="-870" y="1245" width="120" height="60" as="geometry" />
        </mxCell>
        <mxCell id="6uOjEQnala9XNtxMy3LC-105" value="" style="endArrow=none;html=1;rounded=0;exitX=1;exitY=0.5;exitDx=0;exitDy=0;entryX=0;entryY=0.5;entryDx=0;entryDy=0;" parent="WIyWlLk6GJQsqaUBKTNV-1" source="6uOjEQnala9XNtxMy3LC-104" target="6uOjEQnala9XNtxMy3LC-101" edge="1">
          <mxGeometry width="50" height="50" relative="1" as="geometry">
            <mxPoint x="-260" y="1385" as="sourcePoint" />
            <mxPoint x="-210" y="1335" as="targetPoint" />
          </mxGeometry>
        </mxCell>
        <mxCell id="6uOjEQnala9XNtxMy3LC-106" value="&lt;font style=&quot;font-size: 16px;&quot;&gt;1&lt;/font&gt;" style="edgeLabel;html=1;align=center;verticalAlign=middle;resizable=0;points=[];" parent="6uOjEQnala9XNtxMy3LC-105" connectable="0" vertex="1">
          <mxGeometry x="-0.7649" y="-1" relative="1" as="geometry">
            <mxPoint as="offset" />
          </mxGeometry>
        </mxCell>
        <mxCell id="6uOjEQnala9XNtxMy3LC-107" value="id" style="ellipse;whiteSpace=wrap;html=1;" parent="WIyWlLk6GJQsqaUBKTNV-1" vertex="1">
          <mxGeometry x="-790" y="1174" width="70" height="50" as="geometry" />
        </mxCell>
        <mxCell id="6uOjEQnala9XNtxMy3LC-108" value="" style="endArrow=none;html=1;rounded=0;" parent="WIyWlLk6GJQsqaUBKTNV-1" source="6uOjEQnala9XNtxMy3LC-107" target="6uOjEQnala9XNtxMy3LC-104" edge="1">
          <mxGeometry width="50" height="50" relative="1" as="geometry">
            <mxPoint x="-670" y="1325" as="sourcePoint" />
            <mxPoint x="-620" y="1275" as="targetPoint" />
          </mxGeometry>
        </mxCell>
        <mxCell id="6uOjEQnala9XNtxMy3LC-109" value="data" style="ellipse;whiteSpace=wrap;html=1;" parent="WIyWlLk6GJQsqaUBKTNV-1" vertex="1">
          <mxGeometry x="-900" y="1159" width="70" height="50" as="geometry" />
        </mxCell>
        <mxCell id="6uOjEQnala9XNtxMy3LC-110" value="" style="endArrow=none;html=1;rounded=0;" parent="WIyWlLk6GJQsqaUBKTNV-1" source="6uOjEQnala9XNtxMy3LC-109" target="6uOjEQnala9XNtxMy3LC-104" edge="1">
          <mxGeometry width="50" height="50" relative="1" as="geometry">
            <mxPoint x="-670" y="1325" as="sourcePoint" />
            <mxPoint x="-620" y="1275" as="targetPoint" />
          </mxGeometry>
        </mxCell>
        <mxCell id="6uOjEQnala9XNtxMy3LC-111" value="imagem" style="ellipse;whiteSpace=wrap;html=1;" parent="WIyWlLk6GJQsqaUBKTNV-1" vertex="1">
          <mxGeometry x="-340" y="1305" width="60" height="40" as="geometry" />
        </mxCell>
        <mxCell id="6uOjEQnala9XNtxMy3LC-112" value="" style="endArrow=none;html=1;rounded=0;" parent="WIyWlLk6GJQsqaUBKTNV-1" source="6uOjEQnala9XNtxMy3LC-41" target="6uOjEQnala9XNtxMy3LC-111" edge="1">
          <mxGeometry width="50" height="50" relative="1" as="geometry">
            <mxPoint x="-580" y="1355" as="sourcePoint" />
            <mxPoint x="-530" y="1305" as="targetPoint" />
          </mxGeometry>
        </mxCell>
        <mxCell id="6uOjEQnala9XNtxMy3LC-113" value="data_inicio" style="ellipse;whiteSpace=wrap;html=1;" parent="WIyWlLk6GJQsqaUBKTNV-1" vertex="1">
          <mxGeometry x="-370" y="1615" width="80" height="55" as="geometry" />
        </mxCell>
        <mxCell id="6uOjEQnala9XNtxMy3LC-114" value="data_fim" style="ellipse;whiteSpace=wrap;html=1;" parent="WIyWlLk6GJQsqaUBKTNV-1" vertex="1">
          <mxGeometry x="-470" y="1694" width="80" height="40" as="geometry" />
        </mxCell>
        <mxCell id="6uOjEQnala9XNtxMy3LC-115" value="" style="endArrow=none;html=1;rounded=0;" parent="WIyWlLk6GJQsqaUBKTNV-1" source="6uOjEQnala9XNtxMy3LC-114" target="6uOjEQnala9XNtxMy3LC-46" edge="1">
          <mxGeometry width="50" height="50" relative="1" as="geometry">
            <mxPoint x="-290" y="1740" as="sourcePoint" />
            <mxPoint x="-240" y="1690" as="targetPoint" />
          </mxGeometry>
        </mxCell>
        <mxCell id="6uOjEQnala9XNtxMy3LC-116" value="" style="endArrow=none;html=1;rounded=0;" parent="WIyWlLk6GJQsqaUBKTNV-1" source="6uOjEQnala9XNtxMy3LC-113" target="6uOjEQnala9XNtxMy3LC-46" edge="1">
          <mxGeometry width="50" height="50" relative="1" as="geometry">
            <mxPoint x="-290" y="1740" as="sourcePoint" />
            <mxPoint x="-240" y="1690" as="targetPoint" />
          </mxGeometry>
        </mxCell>
        <mxCell id="6uOjEQnala9XNtxMy3LC-117" value="passeword" style="ellipse;whiteSpace=wrap;html=1;" parent="WIyWlLk6GJQsqaUBKTNV-1" vertex="1">
          <mxGeometry x="-430" y="1120" width="80" height="50" as="geometry" />
        </mxCell>
        <mxCell id="6uOjEQnala9XNtxMy3LC-118" value="" style="endArrow=none;html=1;rounded=0;" parent="WIyWlLk6GJQsqaUBKTNV-1" source="6uOjEQnala9XNtxMy3LC-117" target="6uOjEQnala9XNtxMy3LC-0" edge="1">
          <mxGeometry width="50" height="50" relative="1" as="geometry">
            <mxPoint x="-260" y="1270" as="sourcePoint" />
            <mxPoint x="-210" y="1220" as="targetPoint" />
          </mxGeometry>
        </mxCell>
        <mxCell id="6uOjEQnala9XNtxMy3LC-119" value="titulo" style="ellipse;whiteSpace=wrap;html=1;" parent="WIyWlLk6GJQsqaUBKTNV-1" vertex="1">
          <mxGeometry x="-870" y="1330" width="80" height="50" as="geometry" />
        </mxCell>
        <mxCell id="6uOjEQnala9XNtxMy3LC-120" value="" style="endArrow=none;html=1;rounded=0;" parent="WIyWlLk6GJQsqaUBKTNV-1" source="6uOjEQnala9XNtxMy3LC-119" target="6uOjEQnala9XNtxMy3LC-104" edge="1">
          <mxGeometry width="50" height="50" relative="1" as="geometry">
            <mxPoint x="-600" y="1275" as="sourcePoint" />
            <mxPoint x="-550" y="1225" as="targetPoint" />
          </mxGeometry>
        </mxCell>
        <mxCell id="6uOjEQnala9XNtxMy3LC-121" value="" style="endArrow=none;html=1;rounded=0;" parent="WIyWlLk6GJQsqaUBKTNV-1" source="6uOjEQnala9XNtxMy3LC-20" target="6uOjEQnala9XNtxMy3LC-123" edge="1">
          <mxGeometry width="50" height="50" relative="1" as="geometry">
            <mxPoint x="310" y="1170" as="sourcePoint" />
            <mxPoint x="564" y="1300" as="targetPoint" />
            <Array as="points" />
          </mxGeometry>
        </mxCell>
        <mxCell id="6uOjEQnala9XNtxMy3LC-122" value="&lt;font style=&quot;font-size: 18px;&quot;&gt;N&lt;/font&gt;" style="edgeLabel;html=1;align=center;verticalAlign=middle;resizable=0;points=[];" parent="6uOjEQnala9XNtxMy3LC-121" connectable="0" vertex="1">
          <mxGeometry x="-0.92" y="1" relative="1" as="geometry">
            <mxPoint as="offset" />
          </mxGeometry>
        </mxCell>
        <mxCell id="6uOjEQnala9XNtxMy3LC-123" value="ter" style="rhombus;whiteSpace=wrap;html=1;" parent="WIyWlLk6GJQsqaUBKTNV-1" vertex="1">
          <mxGeometry x="440" y="1130" width="80" height="80" as="geometry" />
        </mxCell>
        <mxCell id="6uOjEQnala9XNtxMy3LC-124" value="&lt;font style=&quot;vertical-align: inherit;&quot;&gt;&lt;font style=&quot;vertical-align: inherit;&quot;&gt;data_aplod&lt;/font&gt;&lt;/font&gt;" style="ellipse;whiteSpace=wrap;html=1;" parent="WIyWlLk6GJQsqaUBKTNV-1" vertex="1">
          <mxGeometry x="-980" y="1250" width="80" height="50" as="geometry" />
        </mxCell>
        <mxCell id="6uOjEQnala9XNtxMy3LC-125" value="" style="endArrow=none;html=1;rounded=0;" parent="WIyWlLk6GJQsqaUBKTNV-1" source="6uOjEQnala9XNtxMy3LC-124" target="6uOjEQnala9XNtxMy3LC-104" edge="1">
          <mxGeometry width="50" height="50" relative="1" as="geometry">
            <mxPoint x="-770" y="1445" as="sourcePoint" />
            <mxPoint x="-720" y="1395" as="targetPoint" />
          </mxGeometry>
        </mxCell>
        <mxCell id="6uOjEQnala9XNtxMy3LC-126" value="&lt;font style=&quot;vertical-align: inherit;&quot;&gt;&lt;font style=&quot;vertical-align: inherit;&quot;&gt;imagem&lt;/font&gt;&lt;/font&gt;" style="ellipse;whiteSpace=wrap;html=1;" parent="WIyWlLk6GJQsqaUBKTNV-1" vertex="1">
          <mxGeometry x="210" y="1220" width="80" height="50" as="geometry" />
        </mxCell>
        <mxCell id="6uOjEQnala9XNtxMy3LC-127" value="&lt;font style=&quot;vertical-align: inherit;&quot;&gt;&lt;font style=&quot;vertical-align: inherit;&quot;&gt;titulo&lt;/font&gt;&lt;/font&gt;" style="ellipse;whiteSpace=wrap;html=1;" parent="WIyWlLk6GJQsqaUBKTNV-1" vertex="1">
          <mxGeometry x="100" y="1160" width="70" height="50" as="geometry" />
        </mxCell>
        <mxCell id="6uOjEQnala9XNtxMy3LC-128" value="" style="endArrow=none;html=1;rounded=0;" parent="WIyWlLk6GJQsqaUBKTNV-1" source="6uOjEQnala9XNtxMy3LC-127" target="6uOjEQnala9XNtxMy3LC-20" edge="1">
          <mxGeometry width="50" height="50" relative="1" as="geometry">
            <mxPoint x="250" y="1280" as="sourcePoint" />
            <mxPoint x="300" y="1230" as="targetPoint" />
          </mxGeometry>
        </mxCell>
        <mxCell id="6uOjEQnala9XNtxMy3LC-129" value="" style="endArrow=none;html=1;rounded=0;" parent="WIyWlLk6GJQsqaUBKTNV-1" source="6uOjEQnala9XNtxMy3LC-126" target="6uOjEQnala9XNtxMy3LC-20" edge="1">
          <mxGeometry width="50" height="50" relative="1" as="geometry">
            <mxPoint x="250" y="1280" as="sourcePoint" />
            <mxPoint x="300" y="1230" as="targetPoint" />
          </mxGeometry>
        </mxCell>
        <mxCell id="6uOjEQnala9XNtxMy3LC-130" value="&lt;font style=&quot;vertical-align: inherit;&quot;&gt;&lt;font style=&quot;vertical-align: inherit;&quot;&gt;nutricao&lt;/font&gt;&lt;/font&gt;" style="rounded=1;whiteSpace=wrap;html=1;" parent="WIyWlLk6GJQsqaUBKTNV-1" vertex="1">
          <mxGeometry x="-85" y="740" width="120" height="60" as="geometry" />
        </mxCell>
        <mxCell id="6uOjEQnala9XNtxMy3LC-131" value="&lt;font style=&quot;vertical-align: inherit;&quot;&gt;&lt;font style=&quot;vertical-align: inherit;&quot;&gt;id&lt;/font&gt;&lt;/font&gt;" style="ellipse;whiteSpace=wrap;html=1;" parent="WIyWlLk6GJQsqaUBKTNV-1" vertex="1">
          <mxGeometry x="-45" y="670" width="70" height="40" as="geometry" />
        </mxCell>
        <mxCell id="6uOjEQnala9XNtxMy3LC-132" value="&lt;font style=&quot;vertical-align: inherit;&quot;&gt;&lt;font style=&quot;vertical-align: inherit;&quot;&gt;data&lt;/font&gt;&lt;/font&gt;" style="ellipse;whiteSpace=wrap;html=1;" parent="WIyWlLk6GJQsqaUBKTNV-1" vertex="1">
          <mxGeometry x="70" y="750" width="85" height="50" as="geometry" />
        </mxCell>
        <mxCell id="6uOjEQnala9XNtxMy3LC-133" value="&lt;font style=&quot;vertical-align: inherit;&quot;&gt;&lt;font style=&quot;vertical-align: inherit;&quot;&gt;id_aluno&lt;/font&gt;&lt;/font&gt;" style="ellipse;whiteSpace=wrap;html=1;" parent="WIyWlLk6GJQsqaUBKTNV-1" vertex="1">
          <mxGeometry x="-2" y="820" width="92" height="50" as="geometry" />
        </mxCell>
        <mxCell id="6uOjEQnala9XNtxMy3LC-134" value="&lt;font style=&quot;vertical-align: inherit;&quot;&gt;&lt;font style=&quot;vertical-align: inherit;&quot;&gt;&lt;font style=&quot;vertical-align: inherit;&quot;&gt;&lt;font style=&quot;vertical-align: inherit;&quot;&gt;id_nutricionista&lt;/font&gt;&lt;/font&gt;&lt;/font&gt;&lt;/font&gt;" style="ellipse;whiteSpace=wrap;html=1;" parent="WIyWlLk6GJQsqaUBKTNV-1" vertex="1">
          <mxGeometry x="-235" y="740" width="100" height="60" as="geometry" />
        </mxCell>
        <mxCell id="6uOjEQnala9XNtxMy3LC-135" value="&lt;font style=&quot;vertical-align: inherit;&quot;&gt;&lt;font style=&quot;vertical-align: inherit;&quot;&gt;&lt;font style=&quot;vertical-align: inherit;&quot;&gt;&lt;font style=&quot;vertical-align: inherit;&quot;&gt;peso&lt;/font&gt;&lt;/font&gt;&lt;/font&gt;&lt;/font&gt;" style="ellipse;whiteSpace=wrap;html=1;" parent="WIyWlLk6GJQsqaUBKTNV-1" vertex="1">
          <mxGeometry x="-145" y="670" width="80" height="46" as="geometry" />
        </mxCell>
        <mxCell id="6uOjEQnala9XNtxMy3LC-136" value="" style="endArrow=none;html=1;rounded=0;" parent="WIyWlLk6GJQsqaUBKTNV-1" source="6uOjEQnala9XNtxMy3LC-130" target="6uOjEQnala9XNtxMy3LC-131" edge="1">
          <mxGeometry width="50" height="50" relative="1" as="geometry">
            <mxPoint x="-5" y="710" as="sourcePoint" />
            <mxPoint x="45" y="660" as="targetPoint" />
          </mxGeometry>
        </mxCell>
        <mxCell id="6uOjEQnala9XNtxMy3LC-137" value="" style="endArrow=none;html=1;rounded=0;" parent="WIyWlLk6GJQsqaUBKTNV-1" source="6uOjEQnala9XNtxMy3LC-130" target="6uOjEQnala9XNtxMy3LC-135" edge="1">
          <mxGeometry width="50" height="50" relative="1" as="geometry">
            <mxPoint x="-5" y="710" as="sourcePoint" />
            <mxPoint x="45" y="660" as="targetPoint" />
          </mxGeometry>
        </mxCell>
        <mxCell id="6uOjEQnala9XNtxMy3LC-138" value="" style="endArrow=none;html=1;rounded=0;" parent="WIyWlLk6GJQsqaUBKTNV-1" source="6uOjEQnala9XNtxMy3LC-134" target="6uOjEQnala9XNtxMy3LC-130" edge="1">
          <mxGeometry width="50" height="50" relative="1" as="geometry">
            <mxPoint x="-5" y="710" as="sourcePoint" />
            <mxPoint x="45" y="660" as="targetPoint" />
          </mxGeometry>
        </mxCell>
        <mxCell id="6uOjEQnala9XNtxMy3LC-139" value="" style="endArrow=none;html=1;rounded=0;" parent="WIyWlLk6GJQsqaUBKTNV-1" source="6uOjEQnala9XNtxMy3LC-130" target="6uOjEQnala9XNtxMy3LC-132" edge="1">
          <mxGeometry width="50" height="50" relative="1" as="geometry">
            <mxPoint x="-5" y="710" as="sourcePoint" />
            <mxPoint x="45" y="660" as="targetPoint" />
          </mxGeometry>
        </mxCell>
        <mxCell id="6uOjEQnala9XNtxMy3LC-140" value="" style="endArrow=none;html=1;rounded=0;" parent="WIyWlLk6GJQsqaUBKTNV-1" source="6uOjEQnala9XNtxMy3LC-133" target="6uOjEQnala9XNtxMy3LC-130" edge="1">
          <mxGeometry width="50" height="50" relative="1" as="geometry">
            <mxPoint x="-5" y="710" as="sourcePoint" />
            <mxPoint x="45" y="660" as="targetPoint" />
          </mxGeometry>
        </mxCell>
        <mxCell id="6uOjEQnala9XNtxMy3LC-141" value="&lt;font style=&quot;vertical-align: inherit;&quot;&gt;&lt;font style=&quot;vertical-align: inherit;&quot;&gt;ter&lt;/font&gt;&lt;/font&gt;" style="rhombus;whiteSpace=wrap;html=1;" parent="WIyWlLk6GJQsqaUBKTNV-1" vertex="1">
          <mxGeometry x="-280" y="880" width="80" height="80" as="geometry" />
        </mxCell>
        <mxCell id="6uOjEQnala9XNtxMy3LC-142" value="" style="endArrow=none;html=1;rounded=0;entryX=0.375;entryY=1;entryDx=0;entryDy=0;entryPerimeter=0;" parent="WIyWlLk6GJQsqaUBKTNV-1" target="6uOjEQnala9XNtxMy3LC-130" edge="1">
          <mxGeometry width="50" height="50" relative="1" as="geometry">
            <mxPoint x="-40" y="800" as="sourcePoint" />
            <mxPoint x="-190" y="960" as="targetPoint" />
            <Array as="points" />
          </mxGeometry>
        </mxCell>
        <mxCell id="6uOjEQnala9XNtxMy3LC-143" value="&lt;font style=&quot;font-size: 17px;&quot;&gt;N&lt;/font&gt;" style="edgeLabel;html=1;align=center;verticalAlign=middle;resizable=0;points=[];" parent="6uOjEQnala9XNtxMy3LC-142" connectable="0" vertex="1">
          <mxGeometry x="0.9151" relative="1" as="geometry">
            <mxPoint as="offset" />
          </mxGeometry>
        </mxCell>
        <mxCell id="6uOjEQnala9XNtxMy3LC-144" value="" style="endArrow=none;html=1;rounded=0;entryX=0.5;entryY=1;entryDx=0;entryDy=0;" parent="WIyWlLk6GJQsqaUBKTNV-1" source="6uOjEQnala9XNtxMy3LC-0" target="6uOjEQnala9XNtxMy3LC-141" edge="1">
          <mxGeometry width="50" height="50" relative="1" as="geometry">
            <mxPoint x="-240" y="1010" as="sourcePoint" />
            <mxPoint x="-190" y="960" as="targetPoint" />
          </mxGeometry>
        </mxCell>
        <mxCell id="6uOjEQnala9XNtxMy3LC-145" value="&lt;font style=&quot;vertical-align: inherit;&quot;&gt;&lt;font style=&quot;vertical-align: inherit; font-size: 16px;&quot;&gt;1&lt;/font&gt;&lt;/font&gt;" style="edgeLabel;html=1;align=center;verticalAlign=middle;resizable=0;points=[];" parent="6uOjEQnala9XNtxMy3LC-144" connectable="0" vertex="1">
          <mxGeometry x="-0.7615" relative="1" as="geometry">
            <mxPoint as="offset" />
          </mxGeometry>
        </mxCell>
        <mxCell id="6uOjEQnala9XNtxMy3LC-146" value="" style="endArrow=none;html=1;rounded=0;entryX=0;entryY=0.5;entryDx=0;entryDy=0;exitX=1;exitY=0.5;exitDx=0;exitDy=0;" parent="WIyWlLk6GJQsqaUBKTNV-1" source="6uOjEQnala9XNtxMy3LC-69" target="6uOjEQnala9XNtxMy3LC-147" edge="1">
          <mxGeometry width="50" height="50" relative="1" as="geometry">
            <mxPoint x="-50" y="1550" as="sourcePoint" />
            <mxPoint x="60" y="1550" as="targetPoint" />
          </mxGeometry>
        </mxCell>
        <mxCell id="6uOjEQnala9XNtxMy3LC-147" value="" style="strokeWidth=2;html=1;shape=mxgraph.flowchart.annotation_1;align=left;pointerEvents=1;" parent="WIyWlLk6GJQsqaUBKTNV-1" vertex="1">
          <mxGeometry x="40" y="1535" width="20" height="35" as="geometry" />
        </mxCell>
        <mxCell id="6uOjEQnala9XNtxMy3LC-148" value="" style="endArrow=none;html=1;rounded=0;entryX=0;entryY=0.5;entryDx=0;entryDy=0;exitX=1;exitY=0.5;exitDx=0;exitDy=0;" parent="WIyWlLk6GJQsqaUBKTNV-1" source="6uOjEQnala9XNtxMy3LC-56" target="6uOjEQnala9XNtxMy3LC-150" edge="1">
          <mxGeometry width="50" height="50" relative="1" as="geometry">
            <mxPoint x="180" y="1550" as="sourcePoint" />
            <mxPoint x="310" y="1550" as="targetPoint" />
          </mxGeometry>
        </mxCell>
        <mxCell id="6uOjEQnala9XNtxMy3LC-149" value="&lt;font style=&quot;font-size: 18px;&quot;&gt;N&lt;/font&gt;" style="edgeLabel;html=1;align=center;verticalAlign=middle;resizable=0;points=[];" parent="6uOjEQnala9XNtxMy3LC-148" connectable="0" vertex="1">
          <mxGeometry x="-0.7747" y="-1" relative="1" as="geometry">
            <mxPoint x="1" as="offset" />
          </mxGeometry>
        </mxCell>
        <mxCell id="6uOjEQnala9XNtxMy3LC-150" value="" style="strokeWidth=2;html=1;shape=mxgraph.flowchart.annotation_1;align=left;pointerEvents=1;rotation=-180;" parent="WIyWlLk6GJQsqaUBKTNV-1" vertex="1">
          <mxGeometry x="180" y="1534" width="20" height="30" as="geometry" />
        </mxCell>
        <mxCell id="6uOjEQnala9XNtxMy3LC-151" value="" style="endArrow=none;html=1;rounded=0;entryX=1;entryY=0.5;entryDx=0;entryDy=0;exitX=0;exitY=0.75;exitDx=0;exitDy=0;" parent="WIyWlLk6GJQsqaUBKTNV-1" source="6uOjEQnala9XNtxMy3LC-21" target="6uOjEQnala9XNtxMy3LC-153" edge="1">
          <mxGeometry width="50" height="50" relative="1" as="geometry">
            <mxPoint x="500" y="1353" as="sourcePoint" />
            <mxPoint x="120" y="1360" as="targetPoint" />
            <Array as="points" />
          </mxGeometry>
        </mxCell>
        <mxCell id="6uOjEQnala9XNtxMy3LC-152" value="&lt;font style=&quot;font-size: 15px;&quot;&gt;N&lt;/font&gt;" style="edgeLabel;html=1;align=center;verticalAlign=middle;resizable=0;points=[];" parent="6uOjEQnala9XNtxMy3LC-151" connectable="0" vertex="1">
          <mxGeometry x="-0.9119" y="1" relative="1" as="geometry">
            <mxPoint as="offset" />
          </mxGeometry>
        </mxCell>
        <mxCell id="6uOjEQnala9XNtxMy3LC-153" value="" style="strokeWidth=2;html=1;shape=mxgraph.flowchart.annotation_1;align=left;pointerEvents=1;" parent="WIyWlLk6GJQsqaUBKTNV-1" vertex="1">
          <mxGeometry x="480" y="1345" width="20" height="15" as="geometry" />
        </mxCell>
        <mxCell id="6uOjEQnala9XNtxMy3LC-154" value="" style="endArrow=none;html=1;rounded=0;entryX=0;entryY=0.25;entryDx=0;entryDy=0;exitX=1;exitY=0.5;exitDx=0;exitDy=0;" parent="WIyWlLk6GJQsqaUBKTNV-1" source="6uOjEQnala9XNtxMy3LC-30" target="6uOjEQnala9XNtxMy3LC-155" edge="1">
          <mxGeometry width="50" height="50" relative="1" as="geometry">
            <mxPoint x="-2" y="1310" as="sourcePoint" />
            <mxPoint x="500" y="1318" as="targetPoint" />
          </mxGeometry>
        </mxCell>
        <mxCell id="6uOjEQnala9XNtxMy3LC-155" value="" style="strokeWidth=2;html=1;shape=mxgraph.flowchart.annotation_1;align=left;pointerEvents=1;" parent="WIyWlLk6GJQsqaUBKTNV-1" vertex="1">
          <mxGeometry x="480" y="1310" width="20" height="20" as="geometry" />
        </mxCell>
        <mxCell id="6uOjEQnala9XNtxMy3LC-156" value="" style="endArrow=none;html=1;rounded=0;exitX=1;exitY=0.5;exitDx=0;exitDy=0;entryX=0;entryY=0.5;entryDx=0;entryDy=0;" parent="WIyWlLk6GJQsqaUBKTNV-1" source="6uOjEQnala9XNtxMy3LC-74" target="6uOjEQnala9XNtxMy3LC-157" edge="1">
          <mxGeometry width="50" height="50" relative="1" as="geometry">
            <mxPoint x="-10" y="1724" as="sourcePoint" />
            <mxPoint x="120" y="1724" as="targetPoint" />
          </mxGeometry>
        </mxCell>
        <mxCell id="6uOjEQnala9XNtxMy3LC-157" value="" style="strokeWidth=2;html=1;shape=mxgraph.flowchart.annotation_1;align=left;pointerEvents=1;" parent="WIyWlLk6GJQsqaUBKTNV-1" vertex="1">
          <mxGeometry x="110" y="1709" width="10" height="30" as="geometry" />
        </mxCell>
        <mxCell id="6uOjEQnala9XNtxMy3LC-158" value="" style="endArrow=none;html=1;rounded=0;" parent="WIyWlLk6GJQsqaUBKTNV-1" source="6uOjEQnala9XNtxMy3LC-101" target="6uOjEQnala9XNtxMy3LC-159" edge="1">
          <mxGeometry width="50" height="50" relative="1" as="geometry">
            <mxPoint x="-570" y="1275" as="sourcePoint" />
            <mxPoint x="-490" y="1275" as="targetPoint" />
          </mxGeometry>
        </mxCell>
        <mxCell id="6uOjEQnala9XNtxMy3LC-159" value="" style="strokeWidth=2;html=1;shape=mxgraph.flowchart.annotation_1;align=left;pointerEvents=1;" parent="WIyWlLk6GJQsqaUBKTNV-1" vertex="1">
          <mxGeometry x="-510" y="1260" width="20" height="30" as="geometry" />
        </mxCell>
        <mxCell id="6uOjEQnala9XNtxMy3LC-160" value="" style="endArrow=none;html=1;rounded=0;exitX=0.5;exitY=0;exitDx=0;exitDy=0;entryX=0;entryY=0.5;entryDx=0;entryDy=0;entryPerimeter=0;" parent="WIyWlLk6GJQsqaUBKTNV-1" source="6uOjEQnala9XNtxMy3LC-141" target="6uOjEQnala9XNtxMy3LC-161" edge="1">
          <mxGeometry width="50" height="50" relative="1" as="geometry">
            <mxPoint x="-240" y="880" as="sourcePoint" />
            <mxPoint x="-40" y="800" as="targetPoint" />
            <Array as="points">
              <mxPoint x="-240" y="830" />
              <mxPoint x="-42" y="830" />
            </Array>
          </mxGeometry>
        </mxCell>
        <mxCell id="6uOjEQnala9XNtxMy3LC-161" value="" style="strokeWidth=2;html=1;shape=mxgraph.flowchart.annotation_1;align=left;pointerEvents=1;rotation=-90;" parent="WIyWlLk6GJQsqaUBKTNV-1" vertex="1">
          <mxGeometry x="-52" y="790" width="20" height="40" as="geometry" />
        </mxCell>
      </root>
    </mxGraphModel>
  </diagram>
</mxfile>
